<svg xmlns="http://www.w3.org/2000/svg" xmlns:xlink="http://www.w3.org/1999/xlink" width="16" height="16" viewBox="0 0 16 16">
    <defs>
        <path id="a" d="M3.154 1v1.077h-.539C1.728 2.077 1 2.805 1 3.692v9.693C1 14.272 1.728 15 2.615 15h10.77c.887 0 1.615-.728 1.615-1.615V3.692c0-.887-.728-1.615-1.615-1.615h-.539V1H11.77v1.077H4.231V1H3.154zm-.539 2.154h.539V4.23H4.23V3.154h7.538V4.23h1.077V3.154h.539c.303 0 .538.235.538.538v1.616H2.077V3.692c0-.303.236-.538.538-.538zm-.538 3.23h11.846v7a.532.532 0 0 1-.538.54H2.615a.532.532 0 0 1-.538-.54v-7zm3.23 1.078v1.076h1.078V7.462H5.308zm2.155 0v1.076h1.076V7.462H7.462zm2.153 0v1.076h1.077V7.462H9.615zm2.154 0v1.076h1.077V7.462H11.77zM3.154 9.615v1.077H4.23V9.615H3.154zm2.154 0v1.077h1.077V9.615H5.308zm2.154 0v1.077h1.076V9.615H7.462zm2.153 0v1.077h1.077V9.615H9.615zm2.154 0v1.077h1.077V9.615H11.77zM3.154 11.77v1.077H4.23V11.77H3.154zm2.154 0v1.077h1.077V11.77H5.308zm2.154 0v1.077h1.076V11.77H7.462z"/>
    </defs>
    <g fill-rule="evenodd">
        <mask id="b">
            <use xlink:href="#a"/>
        </mask>
        <use  fill-rule="nonzero" xlink:href="#a"/>
        <path d="M0 0h16v16H0z" mask="url(#b)"/>
    </g>
</svg>
