<svg xmlns="http://www.w3.org/2000/svg" width="20" height="20" viewBox="0 0 20 20">
    <path fill-rule="nonzero" d="M10 0C4.486 0 0 4.486 0 10s4.486 10 10 10 10-4.486 10-10S15.514 0 10 0zm0 1.667c1.64 0 3.164.488 4.453 1.302l-.677.078.156 1.667-.885-.391-.73.625.13 1.719 1.798-.573 2.24.729-.574 1.042-1.354-.834-1.458.209-1.432 1.067-.808 2.5 1.615 1.328s1.657-.286 1.745-.286c.088 0 .703 1.51.703 1.51l-1.328 4.167a8.334 8.334 0 0 1-3.594.807c-.264 0-.524-.029-.781-.052l-.912-1.588.886-3.334-3.36-2.526H2.734l-.807-1.64 2.24-1.771L7.5 5.833 7.005 3.62l1.433-.313.677.938 2.5-.469-.443-1.927-1.85-.13c.222-.017.45-.052.678-.052zm-.938.052l-1.302.547-.625-.105a8.223 8.223 0 0 1 1.928-.442h-.001zM1.72 10.65l.807.938v1.718l1.563 1.719h.963l2.37 2.917c-3.145-1.02-5.44-3.867-5.703-7.292z"/>
</svg>
